<svg width="120" height="120" viewBox="0 0 120 120" fill="2196F3" xmlns="http://www.w3.org/2000/svg">
<g>
<path d="M79.2143 40.5C79.2143 51.2707 70.3891 60 59.3614 60C48.6109 60 39.6471 51.2707 39.6471 40.5C39.6471 29.7308 48.6109 21 59.3614 21C70.3891 21 79.2143 29.7308 79.2143 40.5ZM69.2185 76.1484C65.1062 77.2301 61.8257 81.0539 61.8257 85.5938V89.25C61.8257 89.8898 62.2261 90.5145 62.6882 90.9715L65.1525 93.409C66.1074 94.3687 67.6783 94.3687 68.6333 93.409C69.6036 92.4645 69.6036 90.9105 68.6333 89.966L66.7542 88.2445V85.5938C66.7542 82.8973 69.0953 80.7188 71.6828 80.7188C74.5475 80.7188 76.75 82.8973 76.75 85.5938V88.2445L75.0096 89.966C74.0393 90.9105 74.0393 92.4645 75.0096 93.409C75.9645 94.3687 77.5355 94.3687 78.4904 93.409L80.9547 90.9715C81.4167 90.5145 81.6786 89.8898 81.6786 89.25V85.5938C81.6786 81.0539 78.5366 77.2301 74.2857 76.1484V68.0437C85.606 70.7707 94 80.734 94 92.9062V94.125C94 96.8215 91.7975 99 89.0714 99H29.9286C27.2071 99 25 96.8215 25 94.125V92.9062C25 80.8711 33.3986 70.7707 44.7143 68.0437V77.4129C41.1565 78.4641 38.5536 81.7242 38.5536 85.5938C38.5536 90.3012 42.4194 94.125 47.1786 94.125C51.9377 94.125 55.8036 90.3012 55.8036 85.5938C55.8036 81.7242 53.2007 78.4641 49.6429 77.4129V67.343C50.0587 67.3277 50.4592 67.3125 50.875 67.3125H68.125C68.5408 67.3125 68.9413 67.3277 69.3571 67.343L69.2185 76.1484ZM50.7364 85.5938C50.7364 87.6199 49.227 89.25 47.04 89.25C45.1301 89.25 43.3435 87.6199 43.3435 85.5938C43.3435 83.5676 45.1301 81.9375 47.04 81.9375C49.227 81.9375 50.7364 83.5676 50.7364 85.5938Z" fill="#2196f3"/>
</g>
<defs fill="#000000">
<clipPath id="clip0_2_46" fill="#000000">
<rect width="69" height="78" fill="2196F3" transform="translate(25 21)"/>
</clipPath>
</defs>
</svg>